<?xml version="1.0" encoding="utf-8"?>
<!-- Generator: Adobe Illustrator 22.1.0, SVG Export Plug-In . SVG Version: 6.00 Build 0)  -->
<svg version="1.1" id="Layer_1" xmlns="http://www.w3.org/2000/svg" xmlns:xlink="http://www.w3.org/1999/xlink" x="0px" y="0px"
	 viewBox="0 0 100 100" style="enable-background:new 0 0 100 100;" xml:space="preserve">
<style type="text/css">
	.st0{fill:#777777;}
</style>
<g id="uNU40G.tif_1_">
	<g>
		<g>
			<path class="st0" d="M17,82.1l0.1-1c0-0.5,0.1-0.9,0.1-1.4c0.1-1,0.1-2,0.2-3c0.8-6.4,3.1-12.1,6.7-16.8
				c4.3-5.6,9.8-9.1,16.1-10.3c6.5-1.3,12.6-0.1,18.2,3.6c6.6,4.3,11.1,10.7,13.3,19.1c0.7,2.6,1,5.3,1.1,8c0,0.2,0,0.3,0,0.5l0,1.2
				L17,82.1z M45.2,50.9c-1.5,0-3,0.2-4.6,0.5c-6,1.2-10.9,4.3-15,9.6c-3.5,4.5-5.6,9.8-6.4,15.9c-0.1,0.9-0.2,1.9-0.2,2.9
				c0,0.2,0,0.3,0,0.5l52.1-0.2c0-2.5-0.4-5-1-7.4c-2.1-8.1-6.2-14-12.5-18C53.7,52.2,49.5,50.9,45.2,50.9z"/>
		</g>
		<g>
			<path class="st0" d="M26.7,29l0-3.9l0.4-0.3c0.1-0.1,0.3-0.2,0.6-0.2c0.3,0,0.6,0,0.8-0.1c0.1-0.1,0.2-0.4,0.2-0.7l0-0.1
				c1.6-5,4.2-8.7,8.1-11.2c0.3-0.2,0.5-0.3,0.8-0.5c0.1-0.1,0.3-0.2,0.4-0.2l1-0.6l0.4,1c0.5,1.5,1,2.9,1.5,4.4l0-5.9l0.7-0.2
				c2-0.5,4-0.5,6.1-0.1c0.8,0.2,1,1.2,1,1.5c0,1.6,0,3.1,0,4.7l1.8-5.4l0.9,0.5c1.9,1,3.6,2.3,5.1,4c2.1,2.4,3.6,5.2,4.5,8.4
				c0,0.2,0.1,0.3,0.1,0.3c0,0,0.1,0,0.1,0c0.2,0,0.4,0,0.6,0c0.1,0,0.1,0,0.2,0l0.9,0l0,4.4L26.7,29z M28.5,26.3l0,0.9l32.7-0.1
				l0-0.8c-0.9,0-1.5-0.5-1.8-1.6c-0.8-2.9-2.2-5.5-4.2-7.7c-1.1-1.3-2.3-2.3-3.6-3.1l-3,8.9l-0.8-0.2c-0.1,0-0.1,0-0.2,0l-0.7-0.2
				l0-3.4c0-2.2,0-4.6,0-6.9c-1.4-0.2-2.8-0.2-4.2,0l0,10.5l-1.6,0.1l-0.2-0.7c-0.9-2.7-1.9-5.5-2.8-8.2c-0.1,0-0.1,0.1-0.2,0.1
				c-3.5,2.3-6,5.6-7.4,10.2l0,0.1C30,25.8,29.7,26.2,28.5,26.3z M27.8,26.4C27.8,26.4,27.8,26.4,27.8,26.4
				C27.8,26.4,27.8,26.4,27.8,26.4z M47.3,12.3C47.3,12.3,47.3,12.3,47.3,12.3C47.3,12.3,47.3,12.3,47.3,12.3z"/>
		</g>
		<g>
			<path class="st0" d="M73.2,75.4L73,74.6c-0.8-4.5-2.4-8.7-4.6-12.4c-2.4-3.9-5.3-7-8.9-9.6l-1.3-0.9l1.4-0.7c2-1,4.1-1.5,6.4-1.6
				c7.3-0.3,13.4,2.8,18,9.1c3.1,4.3,4.8,9.4,5,15.3l0,0c0,0.2,0,0.3,0,0.4c0,0.1,0,0.1,0,0.2l-0.1,0.8L73.2,75.4z M61.8,52.1
				c3.2,2.5,6,5.6,8.2,9.2c2.2,3.7,3.8,7.8,4.7,12.2l12.5,0c-0.2-5.4-1.8-9.9-4.6-13.8c-4.3-5.9-9.7-8.6-16.5-8.4
				C64.6,51.4,63.2,51.6,61.8,52.1z"/>
		</g>
		<g>
			<path class="st0" d="M44.8,48.4c-0.1,0-0.3,0-0.4,0c-3.3-0.1-6.4-1.6-8.8-4.2c-3.2-3.4-4.9-7.7-5-12.7c0-0.1,0-0.3,0-0.4
				c0,0,0-0.1,0-0.1l0.1-0.8l28.4-0.1l-0.1,1c0,0.3,0,0.6,0,0.9c0,0.6-0.1,1.3-0.2,1.9c-0.6,4.5-2.4,8.2-5.4,11
				C51,47.1,47.9,48.4,44.8,48.4z M32.4,32c0.3,4.4,1.7,8,4.5,10.9c2.1,2.2,4.8,3.5,7.6,3.6c2.8,0.1,5.5-1,7.7-3.1
				c2.7-2.5,4.3-5.8,4.8-9.9c0.1-0.5,0.1-1.1,0.1-1.7L32.4,32z"/>
		</g>
		<g>
			<path class="st0" d="M67.1,49.4c-2.4,0-4.8-1-6.9-2.9c-0.8-0.8-1.5-1.7-2.1-2.6c-0.2-0.3-0.4-0.7-0.7-1c-0.3-0.4-0.4-1-0.2-1.5
				c0.6-1.5,1.1-3,1.7-4.5l0.8-2.1l18.6-0.1l-0.1,1c0,0.3-0.1,0.6-0.1,0.9c-0.1,0.7-0.1,1.4-0.2,2c-0.5,3-1.8,5.6-3.8,7.6
				C72.1,48.3,69.6,49.4,67.1,49.4z M59,41.9c0.2,0.3,0.4,0.6,0.6,0.9c0.6,0.9,1.1,1.7,1.8,2.3c3.5,3.3,8.1,3.2,11.5-0.2
				c1.7-1.7,2.8-3.9,3.3-6.6c0.1-0.6,0.2-1.2,0.2-1.8l-15.4,0.1l-0.4,0.9C60.1,39,59.6,40.4,59,41.9z M59,41.8
				C59,41.8,59,41.8,59,41.8C59,41.8,59,41.8,59,41.8z"/>
		</g>
		<g>
			<path class="st0" d="M59.8,34.2l0-1c0-0.8,0.1-1.5,0.1-2.3l0-0.9l3.9,0l0-4.2c0-1.6,0-3.3,0-4.9c0-0.2,0-0.8,0.4-1.2
				c0.3-0.3,0.6-0.4,1.1-0.4c1.1,0,2.2,0,3.3,0c0.5,0,0.8,0.1,1.1,0.4c0.4,0.4,0.4,1,0.4,1.3c0,0.7,0,1.5,0,2.2l1.1-3.2l0.9,0.4
				c1.6,0.7,3,1.9,4.3,3.5c1.4,1.7,2.5,3.8,3.2,6c0,0.1,0.1,0.2,0.1,0.3c0,0,0,0,0,0c0.2,0,0.4,0,0.5,0c0,0,0.1,0,0.1,0l0.8,0.1
				l0,3.9L59.8,34.2z M61.7,31.9c0,0.2,0,0.3,0,0.5l7.1,0l-0.2-4c-0.1-2.5-0.2-5.1-0.2-7.2c-0.9,0-1.8,0-2.7,0c0,1.6,0,3.1,0,4.7
				l0,6L61.7,31.9z M72.3,22.6L69,32.4l10.5,0l0-0.3c-0.7-0.1-1.2-0.6-1.5-1.6c-0.6-2-1.6-3.8-2.9-5.4C74.2,24,73.3,23.2,72.3,22.6z
				"/>
		</g>
	</g>
</g>
</svg>
