<?xml version="1.0" encoding="utf-8"?>
<!-- Generator: Adobe Illustrator 22.1.0, SVG Export Plug-In . SVG Version: 6.00 Build 0)  -->
<svg version="1.1" id="Layer_1" xmlns="http://www.w3.org/2000/svg" xmlns:xlink="http://www.w3.org/1999/xlink" x="0px" y="0px"
	 viewBox="0 0 100 100" style="enable-background:new 0 0 100 100;" xml:space="preserve">
<style type="text/css">
	.st0{fill:#FFFFFF;}
</style>
<g>
	<g>
		<path class="st0" d="M62.6,53.1c-7.3,0-14.2-0.5-19.4-1.4c-8-1.4-9-3.1-9-4.5s1-3.2,9-4.5c5.2-0.9,12.1-1.4,19.4-1.4
			s14.2,0.5,19.4,1.4c8,1.4,9,3.1,9,4.5s-1,3.2-9,4.5C76.8,52.6,69.9,53.1,62.6,53.1z M36.9,47.2c1.4,1.2,9.9,3.4,25.7,3.4
			s24.3-2.1,25.7-3.4c-1.4-1.2-9.9-3.4-25.7-3.4C46.9,43.8,38.3,46,36.9,47.2z"/>
	</g>
	<g>
		<path class="st0" d="M61.1,73c-10,0-17.4-2.7-22-8c-6.6-7.6-5.1-17.5-5-18l2.5,0.4c0,0.1-1.4,9.3,4.4,15.9
			c4.3,4.9,11.5,7.3,21.4,7.1c10.2-0.2,17.6-3,21.8-8.2c5.4-6.5,4-14.7,4-14.8l2.5-0.4c0.1,0.4,1.5,9.4-4.6,16.8
			c-4.8,5.8-12.8,8.9-23.7,9.1C62,73,61.6,73,61.1,73z"/>
	</g>
	<g>
		<path class="st0" d="M21.7,45c-3.7,0-6.6-4.4-6.6-10c0-5.6,2.9-10,6.6-10s6.6,4.4,6.6,10C28.3,40.6,25.4,45,21.7,45z M21.7,27.5
			c-2.2,0-4.1,3.4-4.1,7.5s1.9,7.5,4.1,7.5s4.1-3.4,4.1-7.5S23.9,27.5,21.7,27.5z"/>
	</g>
	<g>
		<path class="st0" d="M22.6,75h-2.3c-1.5,0-2.7-1.2-2.7-2.7V45.2c0-1.5,1.2-2.7,2.7-2.7h2.3c1.5,0,2.7,1.2,2.7,2.7v27.1
			C25.3,73.8,24.1,75,22.6,75z M20.3,45c-0.1,0-0.2,0.1-0.2,0.2v27.1c0,0.1,0.1,0.2,0.2,0.2h2.3c0.1,0,0.2-0.1,0.2-0.2V45.2
			c0-0.1-0.1-0.2-0.2-0.2H20.3z"/>
	</g>
</g>
</svg>
