<?xml version="1.0" encoding="utf-8"?>
<!-- Generator: Adobe Illustrator 22.1.0, SVG Export Plug-In . SVG Version: 6.00 Build 0)  -->
<svg version="1.1" id="Layer_1" xmlns="http://www.w3.org/2000/svg" xmlns:xlink="http://www.w3.org/1999/xlink" x="0px" y="0px"
	 viewBox="0 0 100 100" style="enable-background:new 0 0 100 100;" xml:space="preserve">
<style type="text/css">
	.st0{fill:#FFFFFF;stroke:#FFFFFF;stroke-width:2;stroke-miterlimit:10;}
</style>
<g>
	<g>
		<path class="st0" d="M47.3,16.4c-5.2,0-9.4,4.2-9.4,9.4s4.2,9.4,9.4,9.4s9.4-4.2,9.4-9.4S52.5,16.4,47.3,16.4z M47.3,33.9
			c-4.5,0-8.1-3.6-8.1-8.1c0-4.5,3.6-8.1,8.1-8.1s8.1,3.6,8.1,8.1C55.4,30.3,51.8,33.9,47.3,33.9z"/>
	</g>
	<g>
		<path class="st0" d="M71.6,56.5v9L48,74.3l-24.9-7.9v-10c-0.2,0-0.3,0-0.5,0c-0.3,0-0.6,0-0.8,0v11L48,75.8L73,66.4v-9.9
			c-0.2,0-0.3,0-0.5,0C72.2,56.5,71.9,56.5,71.6,56.5z M48,42l-26.3-9.3v15.2c0.3,0,0.6,0,0.8,0c0.2,0,0.3,0,0.5,0V34.5l25,8.9
			l23.6-8.8v13.2c0.3,0,0.6,0,0.8,0c0.2,0,0.3,0,0.5,0V32.6L48,42z"/>
	</g>
	<g>
		<path class="st0" d="M23.1,46.4c-0.2,0-0.3,0-0.5,0c-0.3,0-0.6,0-0.8,0c-4,0.3-7.1,2.7-7.1,5.7s3.1,5.4,7.1,5.7c0.3,0,0.6,0,0.8,0
			c0.2,0,0.3,0,0.5,0c4.1-0.2,7.4-2.7,7.4-5.7S27.2,46.6,23.1,46.4z M23.1,56.5c-0.2,0-0.3,0-0.5,0c-0.3,0-0.6,0-0.8,0
			c-3.2-0.3-5.7-2.1-5.7-4.3c0-2.2,2.5-4.1,5.7-4.3c0.3,0,0.6,0,0.8,0c0.2,0,0.3,0,0.5,0c3.4,0.2,6.1,2.1,6.1,4.4
			C29.1,54.4,26.4,56.3,23.1,56.5z"/>
	</g>
	<g>
		<path class="st0" d="M73,46.4c-0.2,0-0.3,0-0.5,0c-0.3,0-0.6,0-0.8,0c-4,0.3-7.1,2.7-7.1,5.7s3.1,5.4,7.1,5.7c0.3,0,0.6,0,0.8,0
			c0.2,0,0.3,0,0.5,0c4.1-0.2,7.4-2.7,7.4-5.7S77.1,46.6,73,46.4z M73,56.5c-0.2,0-0.3,0-0.5,0c-0.3,0-0.6,0-0.8,0
			c-3.2-0.3-5.7-2.1-5.7-4.3c0-2.2,2.5-4.1,5.7-4.3c0.3,0,0.6,0,0.8,0c0.2,0,0.3,0,0.5,0c3.4,0.2,6.1,2.1,6.1,4.4
			C79,54.4,76.3,56.3,73,56.5z"/>
	</g>
</g>
</svg>
