<?xml version="1.0" encoding="utf-8"?>
<!-- Generator: Adobe Illustrator 22.1.0, SVG Export Plug-In . SVG Version: 6.00 Build 0)  -->
<svg version="1.1" id="Layer_1" xmlns="http://www.w3.org/2000/svg" xmlns:xlink="http://www.w3.org/1999/xlink" x="0px" y="0px"
	 viewBox="0 0 100 100" style="enable-background:new 0 0 100 100;" xml:space="preserve">
<style type="text/css">
	.st0{fill:#FFFFFF;stroke:#FFFFFF;stroke-width:2;stroke-miterlimit:10;}
	.st1{fill:#FFFFFF;}
</style>
<g id="e8gg2Q.tif_1_">
	<g>
		<g>
			<g>
				<g>
					<path class="st0" d="M50.1,69.6c-0.8-0.9-0.9-2.1-0.3-3.1c0.1-0.1,0.3-0.2,0.4-0.3c0.4-0.1,0.8-0.2,1.1-0.4
						c2.4-1.1,3.7-4.3,2.8-6.8c-0.8-2.4-3.2-3.4-5.4-2.2c-0.1,0-0.1,0.1-0.3,0.1c0-0.2,0.1-0.3,0.1-0.4c0.6-2.1,1.3-4.2,1.9-6.4
						c0.1-0.3,0.2-0.4,0.5-0.5c5.3-1.6,10.6-3.2,15.9-4.8c0.1,0,0.3-0.1,0.4-0.1c0.4-0.2,0.5-0.7,0.2-1c-0.2-0.3-0.5-0.2-0.8-0.1
						c-3.4,1-6.8,2.1-10.3,3.1c-1.7,0.5-3.5,1.1-5.3,1.6c0-0.1,0.1-0.2,0.1-0.3c1.3-4.3,2.6-8.6,3.9-12.9c0.2-0.8,0.5-1.6,0.7-2.4
						c0.1-0.4-0.1-0.7-0.4-0.9c-0.4-0.1-0.7,0.1-0.8,0.5c0,0.1,0,0.1,0,0.2c-1.6,5.4-3.2,10.7-4.9,16.1c-0.1,0.2-0.1,0.3-0.3,0.4
						c-2.2,0.7-4.4,1.3-6.7,2c-0.1,0-0.1,0-0.2,0c0.1-0.1,0.1-0.3,0.2-0.4c1-2,0.2-4.1-1.8-5.1c-2.6-1.2-6.1,0-7.3,2.6
						c-0.9,2-0.2,4.1,1.7,5c1.3,0.6,2.7,0.6,4.1,0.2c3.1-0.9,6.3-1.9,9.4-2.8c0.1,0,0.2-0.1,0.4-0.1c-0.4,1.4-0.8,2.8-1.3,4.2
						c-0.6,2-1.3,4.1-1.8,6.1c-0.4,1.6-0.2,3.1,0.9,4.4c0.4,0.5,1,0.9,1.6,1.1c-0.1,0.1-0.1,0.2-0.1,0.3c-0.6,1.4-0.3,3.1,0.8,4.1
						c0.2,0.2,0.5,0.3,0.8,0.2C50.4,70.6,50.5,70.1,50.1,69.6z M36.6,52.2c-2.1-0.5-2.8-2.7-1.3-4.3c0.1-0.1,0.1-0.1,0.2-0.2
						c1.3-1.2,2.8-1.6,4.5-1.1c1.7,0.6,2.2,2.3,1.2,3.8C40.3,51.8,38.3,52.6,36.6,52.2z M50.9,64.7c-1.3,0.6-2.6,0.2-3.2-1.1
						c-0.7-1.5-0.5-2.9,0.4-4.3c0.1-0.2,0.4-0.5,0.5-0.7c0.2-0.2,0.5-0.4,0.7-0.5c1.4-0.9,3-0.3,3.6,1.2
						C53.7,61.3,52.7,63.8,50.9,64.7z"/>
				</g>
			</g>
		</g>
	</g>
</g>
<g>
	<g>
		<g>
			<path class="st1" d="M74.7,86H25.1l0.9-33.3l-2.7,3L7.7,42l0.5-0.9c0.1-0.3,3.5-6.5,9-13c7.4-8.8,14.9-13.4,22-13.8l0.8,0
				l0.4,0.7c0,0.1,3.7,6.6,8.8,6.9c3.2,0.2,6.6-2.2,9.8-7l0.3-0.5l0.6,0c0.5,0,13.5-0.7,31.1,26.7l0.6,0.9L77.1,56.2l-2.4-2V86z
				 M27.8,83.4h44.3V48.6l4.8,4.1l11.4-11.2C73.9,19.4,63.2,17.1,60.7,16.9c-3.7,5.2-7.7,7.8-11.7,7.5c-5.5-0.3-9.3-5.5-10.5-7.5
				C25,18.2,13.4,37.1,10.9,41.4l12.2,10.7l5.7-6.2L27.8,83.4z"/>
		</g>
	</g>
</g>
</svg>
