<?xml version="1.0" encoding="utf-8"?>
<!-- Generator: Adobe Illustrator 22.1.0, SVG Export Plug-In . SVG Version: 6.00 Build 0)  -->
<svg version="1.1" id="Layer_1" xmlns="http://www.w3.org/2000/svg" xmlns:xlink="http://www.w3.org/1999/xlink" x="0px" y="0px"
	 viewBox="0 0 100 100" style="enable-background:new 0 0 100 100;" xml:space="preserve">
<style type="text/css">
	.st0{fill:#EA960F;}
	.st1{fill:#1E87BC;}
</style>
<g>
	<path class="st0" d="M20.8,54.8c0.9,0,1.6-0.2,2.2-0.5c0.6-0.3,1-0.8,1.4-1.3c0.4-0.6,0.6-1.2,0.7-1.9c0.1-0.7,0.2-1.4,0.2-2.2
		v-8.4H28v8.4c0,1.1-0.1,2.2-0.4,3.2c-0.3,1-0.7,1.9-1.3,2.6c-0.6,0.8-1.3,1.4-2.2,1.8c-0.9,0.4-2,0.7-3.3,0.7
		c-1.3,0-2.4-0.2-3.4-0.7c-0.9-0.5-1.6-1.1-2.2-1.8c-0.6-0.8-1-1.7-1.2-2.7c-0.2-1-0.4-2-0.4-3.1v-8.4h2.6v8.4
		c0,0.8,0.1,1.5,0.2,2.2c0.1,0.7,0.4,1.3,0.7,1.9c0.4,0.6,0.8,1,1.4,1.3C19.3,54.6,20,54.8,20.8,54.8z"/>
	<path class="st0" d="M39.3,57.3c-1,0-1.8-0.2-2.6-0.7c-0.7-0.5-1.3-1.1-1.8-1.8V62h-2.6V44.8h2.3V47c0.5-0.7,1.1-1.3,1.8-1.8
		c0.7-0.4,1.6-0.7,2.5-0.7c0.8,0,1.6,0.2,2.3,0.5c0.7,0.3,1.3,0.8,1.8,1.4c0.5,0.6,0.9,1.2,1.2,2c0.3,0.8,0.4,1.6,0.4,2.4
		c0,0.9-0.1,1.7-0.4,2.5c-0.3,0.8-0.6,1.4-1.1,2c-0.5,0.6-1.1,1-1.7,1.4C40.8,57.1,40.1,57.3,39.3,57.3z M38.5,55.1
		c0.5,0,1-0.1,1.5-0.4c0.4-0.2,0.8-0.5,1.1-0.9c0.3-0.4,0.6-0.8,0.7-1.3c0.2-0.5,0.3-1,0.3-1.5c0-0.6-0.1-1.1-0.3-1.6
		c-0.2-0.5-0.5-0.9-0.8-1.3c-0.3-0.4-0.7-0.7-1.2-0.9c-0.5-0.2-1-0.3-1.5-0.3c-0.3,0-0.7,0.1-1,0.2c-0.4,0.1-0.7,0.3-1,0.5
		c-0.3,0.2-0.6,0.5-0.8,0.8c-0.2,0.3-0.4,0.6-0.5,0.9v3.2c0.2,0.4,0.4,0.7,0.6,1.1c0.2,0.3,0.5,0.6,0.8,0.8s0.6,0.4,1,0.6
		C37.7,55,38.1,55.1,38.5,55.1z"/>
	<path class="st1" d="M48.4,57V40.4H51v14.3h8.9V57H48.4z"/>
	<path class="st1" d="M62.9,42.8v-2.8h2.6v2.8H62.9z M62.9,57V44.8h2.6V57H62.9z"/>
	<path class="st1" d="M70.4,57v-9.9h-1.6v-2h1.6v-0.5c0-1.5,0.4-2.7,1.1-3.6c0.7-0.9,1.7-1.3,2.9-1.3c0.5,0,1,0.1,1.5,0.2
		c0.5,0.1,0.9,0.3,1.4,0.5l-0.6,1.9c-0.2-0.1-0.5-0.3-0.8-0.4c-0.3-0.1-0.6-0.1-0.9-0.1c-0.6,0-1.1,0.2-1.4,0.7
		c-0.3,0.5-0.5,1.1-0.5,2v0.6h3.1v2H73V57H70.4z"/>
	<path class="st1" d="M86,56.4c-0.3,0.2-0.8,0.3-1.4,0.5c-0.6,0.2-1.2,0.3-1.8,0.3c-0.4,0-0.8-0.1-1.1-0.2c-0.4-0.1-0.7-0.3-0.9-0.5
		c-0.3-0.2-0.5-0.5-0.6-0.9c-0.2-0.4-0.2-0.8-0.2-1.3v-7.6h-1.6v-2h1.6v-4h2.6v4h2.7v2h-2.7v6.8c0,0.4,0.2,0.8,0.4,0.9
		c0.2,0.2,0.5,0.3,0.9,0.3c0.4,0,0.7-0.1,1-0.2c0.3-0.1,0.6-0.2,0.7-0.3L86,56.4z"/>
</g>
<g>
	<polygon class="st1" points="56.7,42.7 49.7,34.2 43,42.7 40.5,42.8 49.6,31.2 59.2,42.8 	"/>
</g>
<g>
	<polygon class="st0" points="56.7,37.7 49.7,29.2 43,37.7 40.5,37.8 49.6,26.2 59.2,37.8 	"/>
</g>
</svg>
